<svg xmlns="http://www.w3.org/2000/svg" viewBox="0 0 64 64">
  <rect width="64" height="64" fill="#000"/>
  <path fill="#fff" transform="translate(5.000 7.634) scale(0.6585)" d="M54 0L55 0L57 2L57 5L56 6L56 9L58.5 11.5L59 11L61 11L62 10L66 10L68 8L71 8L72 9L75 9L75 11L76 12L76 13L77 14L77 17L78 18L79 18L80 17L81 17L81 18L78 21L78 22L79 23L79 24L80 25L80 26L81 27L81 31L80 32L80 33L82 35L82 38L81 39L81 40L80 41L80 44L79 44L78 45L78 47L79 48L79 49L78.5 49.5L79 50L79 51L78 52L78 55L77 55L75 57L74 57L73 58L72 58L71 57L69 57L68 56L64 56L63 55L62 56L60 56L58 58L58 60L56 62L54 62L53.5 62.5L55 64L55 66L54 67L54 69L53 70L50 70L48 72L48 73L47 73L46 74L43 74L43 73L42 72L42 71L41 70L40 70L39 69L38 70L37 70L37 69L36 68L36 66L34 64L33 64L33 63L32 62L32 61L31 60L30 60L30 58L29 57L28 57L26.5 55.5L26 56L25 56L24.5 55.5L24 56L24 58L20 58L19 57L16 57L15 56L14 56L14 55L13 54L13 53L11 51L11 50L9 48L9 47L8 46L8 45L7 44L7 43L6 42L6 41L5 40L5 39L3 37L3 35L0 32L0 29L1 28L1 25L1.5 24.5L1 24L1 23L2.5 21.5L2 21L2 17L3 17L4 16L4 15L5 14L5 13L8 10L9 10L9.5 10.5L12 8L13 8L14 9L15 9L15.5 9.5L16 9L20 9L21 10L23 10L23.5 10.5L24 10L26 10L28 8L30 8L31 7L40 7L40 10L40.5 10.5L41 10L44 10L45.5 8.5L45 8L44 8L44 6L43 5L43 4L46 4L47 5L49 3L51 3Z"/>
</svg>
